<mxfile host="app.diagrams.net" modified="2024-06-22T21:19:43.387Z" agent="Mozilla/5.0 (Macintosh; Intel Mac OS X 10.15; rv:127.0) Gecko/20100101 Firefox/127.0" version="24.6.0" etag="tz1YDi9iAl_i_G39AGSD" type="github">
  <diagram name="PÃ¡gina-1" id="CHmgHFcQjoJUC8SGKFwd">
    <mxGraphModel>
      <root>
        <mxCell id="0" />
        <mxCell id="1" parent="0" />
      </root>
    </mxGraphModel>
  </diagram>
</mxfile>
